<?xml version="1.0" encoding="UTF-8"?>
<svg id="Layer_1" data-name="Layer 1" xmlns="http://www.w3.org/2000/svg" xmlns:xlink="http://www.w3.org/1999/xlink" viewBox="0 0 50 50">
  <defs>
    <clipPath id="clippath">
      <ellipse cx="25" cy="25" rx="24.88" ry="24.94" fill="#d90027"/>
    </clipPath>
  </defs>
  <g>
    <ellipse cx="25" cy="25" rx="24.88" ry="24.94" fill="#d90027"/>
    <g clip-path="url(#clippath)">
      <rect x="-6.54" y="-7.67" width="66.72" height="32.67" fill="#f0f0f0"/>
      <path d="M5.2,7.36L22.96,25,5.88,42.15S-27.67,26.89,5.2,7.36Z" fill="#094fb4"/>
    </g>
  </g>
  <polygon points="13.74 29 10.41 27.71 10.4 31.29 8.47 28.27 6.36 31.17 6.57 27.59 3.17 28.69 5.43 25.92 2.03 24.81 5.49 23.9 3.39 21 6.72 22.29 6.73 18.71 8.66 21.73 10.77 18.83 10.56 22.41 13.96 21.31 11.7 24.08 15.1 25.19 11.64 26.1 13.74 29" fill="#ffd639"/>
  <polygon points="7.81 15.31 6.68 15.01 5.78 15.77 5.72 14.6 4.73 13.99 5.82 13.57 6.09 12.42 6.83 13.34 8 13.25 7.36 14.23 7.81 15.31" fill="#ffd639"/>
  <polygon points="7.88 37.42 6.74 37.16 5.88 37.96 5.77 36.79 4.74 36.22 5.82 35.76 6.04 34.6 6.82 35.48 7.98 35.34 7.39 36.35 7.88 37.42" fill="#ffd639"/>
  <polygon points="18.97 26.13 17.83 25.88 16.97 26.68 16.86 25.51 15.84 24.94 16.91 24.47 17.14 23.32 17.91 24.2 19.08 24.06 18.48 25.07 18.97 26.13" fill="#ffd639"/>
</svg>