<?xml version="1.0" encoding="UTF-8"?>
<svg id="Layer_1" data-name="Layer 1" xmlns="http://www.w3.org/2000/svg" viewBox="0 0 50 50">
  <ellipse cx="24.88" cy="25" rx="24.88" ry="24.94" fill="#d90027"/>
  <g>
    <path d="M14.23,19.7s-1.48,4.63,2.87,6.38c4.41,1.77,6.7-2.16,3.96-3.74-1.72-.99-4.63-1.55-6.83-2.64Z" fill="#f4eef0"/>
    <path d="M15.76,33.32s3.96,2.81,6.94-.82c3.02-3.68-.03-7.05-2.36-4.91-1.47,1.34-2.88,3.95-4.58,5.73Z" fill="#f4eef0"/>
    <path d="M29.19,35.97s3.87-2.93,1.32-6.88c-2.59-4-6.72-2.1-5.39,.77,.84,1.81,2.89,3.94,4.07,6.1Z" fill="#f4eef0"/>
    <path d="M35.76,23.95s-1.62-4.59-6.14-3.34c-4.58,1.27-4.02,5.78-.89,5.38,1.97-.25,4.62-1.57,7.03-2.04Z" fill="#f4eef0"/>
    <path d="M26.31,14.03s-4.85,.16-5.03,4.86,4.28,5.59,4.85,2.48c.36-1.96-.1-4.89,.18-7.34Z" fill="#f4eef0"/>
  </g>
</svg>