<?xml version="1.0" encoding="UTF-8"?>
<svg id="Layer_1" data-name="Layer 1" xmlns="http://www.w3.org/2000/svg" xmlns:xlink="http://www.w3.org/1999/xlink" viewBox="0 0 50 50">
  <defs>
    <clipPath id="clippath">
      <ellipse cx="25" cy="24.96" rx="24.88" ry="24.94" fill="#0252b6"/>
    </clipPath>
  </defs>
  <ellipse cx="25" cy="24.96" rx="24.88" ry="24.94" fill="#0252b6"/>
  <g clip-path="url(#clippath)">
    <g>
      <g>
        <polygon points="1.21 3.39 3.63 .97 48.14 45.57 45.72 47.99 1.21 3.39" fill="#d90028"/>
        <path d="M3.63,1.78L47.33,45.57l-1.61,1.61L2.02,3.39l1.61-1.61m0-1.61l-.81,.81-1.61,1.61-.8,.81,.8,.81L44.92,47.99l.81,.81,.81-.81,1.61-1.61,.8-.81-.8-.81L4.44,.97,3.63,.16h0Z" fill="#f2eef0"/>
      </g>
      <g>
        <polygon points="1.8 46.02 46.3 1.42 48.72 3.85 4.21 48.45 1.8 46.02" fill="#d90028"/>
        <path d="M46.31,2.23l1.61,1.61L4.21,47.64l-1.61-1.61L46.31,2.23m0-1.61l-.81,.81L1.79,45.22l-.8,.81,.8,.81,1.61,1.61,.81,.81,.81-.81L48.72,4.65l.8-.81-.8-.81-1.61-1.61-.81-.81h0Z" fill="#f2eef0"/>
      </g>
    </g>
    <g>
      <polygon points="21.52 56.43 21.52 28.57 -7.25 28.57 -7.25 21.34 21.52 21.34 21.52 -6.52 28.74 -6.52 28.74 21.34 57.25 21.34 57.25 28.57 28.74 28.57 28.74 56.43 21.52 56.43" fill="#d90028"/>
      <path d="M28.17-5.95V21.91h28.51v6.09H28.17v27.86h-6.08V28H-6.68v-6.09H22.09V-5.95h6.08m1.14-1.14h-8.36V20.77H-7.82v8.37H20.95v27.86h8.36V29.14h28.51v-8.37H29.31V-7.09h0Z" fill="#f2eef0"/>
    </g>
  </g>
</svg>