<?xml version="1.0" encoding="UTF-8"?>
<svg id="Layer_1" data-name="Layer 1" xmlns="http://www.w3.org/2000/svg" xmlns:xlink="http://www.w3.org/1999/xlink" viewBox="0 0 50 50">
  <defs>
    <clipPath id="clippath">
      <circle cx="25" cy="25" r="25" fill="#f0f0f0"/>
    </clipPath>
  </defs>
  <circle cx="25" cy="25" r="25" fill="#f0f0f0"/>
  <g clip-path="url(#clippath)">
    <rect x="-.61" y="7.12" width="54.47" height="7.03" fill="#d80125"/>
    <rect x="-.61" y="35.84" width="54.47" height="7.03" fill="#d80125"/>
    <rect x="-.61" y="21.6" width="54.47" height="7.03" fill="#d80125"/>
    <path d="M25.32-3.57V28.64H-3.05S-5.66-4,25.32-3.57Z" fill="#054fbd"/>
    <polygon points="14.21 5.46 12.71 6.9 13.04 8.95 11.21 7.96 9.36 8.91 9.73 6.86 8.26 5.39 10.32 5.12 11.26 3.26 12.16 5.14 14.21 5.46" fill="#f0f0f0"/>
    <polygon points="7.53 14.35 6.02 15.78 6.35 17.83 4.52 16.84 2.67 17.79 3.05 15.74 1.58 14.28 3.64 14 4.58 12.15 5.48 14.02 7.53 14.35" fill="#f0f0f0"/>
    <polygon points="14.53 14.35 13.02 15.78 13.35 17.83 11.52 16.84 9.67 17.79 10.05 15.74 8.58 14.28 10.64 14 11.58 12.15 12.48 14.02 14.53 14.35" fill="#f0f0f0"/>
    <polygon points="22.96 14.35 21.46 15.78 21.79 17.83 19.96 16.84 18.11 17.79 18.48 15.74 17.01 14.28 19.07 14 20.01 12.15 20.91 14.02 22.96 14.35" fill="#f0f0f0"/>
    <polygon points="22.92 22.83 21.41 24.26 21.74 26.31 19.91 25.32 18.06 26.27 18.44 24.22 16.97 22.76 19.03 22.48 19.97 20.63 20.87 22.5 22.92 22.83" fill="#f0f0f0"/>
    <polygon points="14.57 22.83 13.07 24.26 13.4 26.31 11.57 25.32 9.72 26.27 10.09 24.22 8.62 22.76 10.68 22.48 11.62 20.63 12.52 22.5 14.57 22.83" fill="#f0f0f0"/>
    <polygon points="7.48 22.83 5.98 24.26 6.31 26.31 4.48 25.32 2.63 26.27 3 24.22 1.53 22.76 3.59 22.48 4.53 20.63 5.43 22.5 7.48 22.83" fill="#f0f0f0"/>
    <polygon points="22.92 5.46 21.41 6.9 21.74 8.95 19.91 7.96 18.06 8.91 18.44 6.86 16.97 5.39 19.03 5.12 19.97 3.26 20.87 5.14 22.92 5.46" fill="#f0f0f0"/>
  </g>
</svg>