<?xml version="1.0" encoding="UTF-8"?>
<svg id="Layer_1" data-name="Layer 1" xmlns="http://www.w3.org/2000/svg" viewBox="0 0 219.26 122.94">
  <path d="M0,17.87s20.87,14.55,70.4,18.38,119.23,23.74,142.47,86.68L0,123.72V17.87Z" fill="#d85926"/>
  <g>
    <path d="M27.11,123.72h22.55C34.48,87.36,7.11,70.59-.37,66.55l.08,12.06c6.68,5.35,21.56,19.71,27.41,45.11Z" fill="#faa500"/>
    <path d="M76.46,123.72h57.26C106.91,56.72,56.62,50.3,37.21,46.72S-.57,36-.57,36l.09,14.24c12.29,3.88,55.74,20.96,76.94,73.48Z" fill="#faa500"/>
    <path d="M-.29,79.9l.29,43.82H26.09C20.44,99.5,6.52,85.5-.29,79.9Z" fill="#faa500"/>
    <path d="M-.47,51.29l.09,14.12c6.89,3.64,35.52,20.6,51.13,58.31h24.63C54.44,72.28,12.01,55.28-.47,51.29Z" fill="#faa500"/>
  </g>
</svg>