<svg width="132" height="26" viewBox="0 0 132 26" fill="none" xmlns="http://www.w3.org/2000/svg">
<path d="M9.02557 20H4.29368V16.7063H8.86577C10.0021 16.7063 10.958 16.5051 11.7333 16.1026C12.5146 15.6942 13.1005 15.0639 13.4911 14.2116C13.8877 13.3535 14.0859 12.2467 14.0859 10.8913C14.0859 9.54782 13.8877 8.44993 13.4911 7.59766C13.1005 6.74538 12.5175 6.11802 11.7422 5.71555C10.9669 5.31309 10.011 5.11186 8.87465 5.11186H4.21378V1.81818H9.07884C10.9077 1.81818 12.482 2.18217 13.8018 2.91016C15.1217 3.63222 16.1367 4.67093 16.8469 6.02628C17.5631 7.38163 17.9212 9.00331 17.9212 10.8913C17.9212 12.7853 17.5631 14.4129 16.8469 15.7741C16.1367 17.1354 15.1158 18.18 13.7841 18.908C12.4583 19.636 10.8722 20 9.02557 20ZM6.42436 1.81818V20H2.58026V1.81818H6.42436ZM0.0589488 11.5305V9.29332H8.91016V11.5305H0.0589488ZM24.5862 20.2575C23.7162 20.2575 22.9408 20.1065 22.2602 19.8047C21.5796 19.4969 21.041 19.0442 20.6444 18.4464C20.2538 17.8427 20.0585 17.091 20.0585 16.1914C20.0585 15.4338 20.1976 14.7976 20.4758 14.2827C20.7539 13.7678 21.1327 13.3535 21.6121 13.0398C22.0915 12.7261 22.636 12.4893 23.2456 12.3295C23.8612 12.1697 24.5063 12.0573 25.181 11.9922C25.9741 11.9093 26.6133 11.8324 27.0986 11.7614C27.584 11.6844 27.9361 11.572 28.1551 11.424C28.3741 11.276 28.4836 11.0571 28.4836 10.767V10.7138C28.4836 10.1515 28.306 9.7165 27.9509 9.40874C27.6017 9.10097 27.1046 8.94709 26.4594 8.94709C25.7788 8.94709 25.2372 9.09801 24.8348 9.39986C24.4323 9.69579 24.166 10.0687 24.0358 10.5185L20.5379 10.2344C20.7155 9.40578 21.0647 8.68963 21.5855 8.08594C22.1063 7.47633 22.7781 7.00876 23.6008 6.68324C24.4294 6.3518 25.3882 6.18608 26.4772 6.18608C27.2348 6.18608 27.9598 6.27486 28.6523 6.45241C29.3506 6.62997 29.9691 6.90518 30.5077 7.27805C31.0522 7.65092 31.4813 8.13033 31.795 8.71626C32.1087 9.29628 32.2655 9.99171 32.2655 10.8026V20H28.6789V18.109H28.5724C28.3534 18.5352 28.0604 18.911 27.6934 19.2365C27.3265 19.5561 26.8856 19.8076 26.3706 19.9911C25.8557 20.1687 25.2609 20.2575 24.5862 20.2575ZM25.6693 17.6474C26.2256 17.6474 26.7169 17.5379 27.143 17.3189C27.5692 17.094 27.9036 16.7921 28.1462 16.4134C28.3889 16.0346 28.5102 15.6055 28.5102 15.1261V13.679C28.3918 13.7559 28.2291 13.8269 28.0219 13.892C27.8207 13.9512 27.5928 14.0075 27.3383 14.0607C27.0838 14.1081 26.8293 14.1525 26.5748 14.1939C26.3203 14.2294 26.0895 14.262 25.8824 14.2915C25.4385 14.3567 25.0508 14.4602 24.7194 14.6023C24.3879 14.7443 24.1305 14.9367 23.947 15.1793C23.7635 15.4161 23.6718 15.712 23.6718 16.0671C23.6718 16.582 23.8582 16.9756 24.2311 17.2479C24.6099 17.5142 25.0893 17.6474 25.6693 17.6474ZM28.377 1.60511H31.0138C31.0078 2.68229 30.6083 3.54936 29.8153 4.20632C29.0281 4.86328 27.9627 5.19176 26.6192 5.19176C25.2698 5.19176 24.2015 4.86328 23.4143 4.20632C22.6272 3.54936 22.2336 2.68229 22.2336 1.60511H24.8525C24.8466 2.01349 24.9768 2.38044 25.2432 2.70597C25.5154 3.03149 25.9741 3.19425 26.6192 3.19425C27.2466 3.19425 27.6964 3.03445 27.9687 2.71484C28.2409 2.39524 28.377 2.02533 28.377 1.60511ZM38.9816 12.1165V20H35.1997V6.36364H38.8041V8.76953H38.9639C39.2657 7.97644 39.7718 7.34908 40.482 6.88743C41.1922 6.41986 42.0534 6.18608 43.0654 6.18608C44.0124 6.18608 44.838 6.39323 45.5423 6.80753C46.2467 7.22183 46.7941 7.81368 47.1847 8.5831C47.5754 9.34659 47.7707 10.258 47.7707 11.3175V20H43.9887V11.9922C43.9946 11.1577 43.7816 10.5066 43.3495 10.0391C42.9175 9.56558 42.3227 9.32884 41.5651 9.32884C41.0561 9.32884 40.6063 9.43833 40.2156 9.65731C39.8309 9.8763 39.5291 10.1959 39.3101 10.6161C39.097 11.0304 38.9875 11.5305 38.9816 12.1165ZM56.8949 25.3977C55.6697 25.3977 54.6192 25.229 53.7433 24.8917C52.8732 24.5603 52.1808 24.1075 51.6658 23.5334C51.1509 22.9593 50.8165 22.3142 50.6626 21.598L54.1605 21.1275C54.267 21.3997 54.4357 21.6542 54.6665 21.891C54.8974 22.1277 55.2022 22.3171 55.581 22.4592C55.9657 22.6071 56.4332 22.6811 56.9837 22.6811C57.8063 22.6811 58.484 22.4799 59.0167 22.0774C59.5553 21.6809 59.8246 21.015 59.8246 20.0799V17.5852H59.6648C59.4991 17.964 59.2505 18.3221 58.919 18.6594C58.5876 18.9968 58.1615 19.272 57.6406 19.4851C57.1198 19.6982 56.4983 19.8047 55.7763 19.8047C54.7524 19.8047 53.8202 19.5679 52.9798 19.0945C52.1452 18.6151 51.4794 17.8841 50.9822 16.9016C50.491 15.9132 50.2454 14.6644 50.2454 13.1552C50.2454 11.6104 50.4969 10.3202 51 9.28445C51.5031 8.2487 52.1719 7.47337 53.0064 6.95845C53.8468 6.44354 54.7672 6.18608 55.7674 6.18608C56.5309 6.18608 57.1701 6.31629 57.685 6.5767C58.1999 6.8312 58.6142 7.1508 58.9279 7.53551C59.2475 7.9143 59.4931 8.28717 59.6648 8.65412H59.8068V6.36364H63.5621V20.1332C63.5621 21.2932 63.2781 22.2638 62.7099 23.0451C62.1417 23.8263 61.3545 24.4123 60.3484 24.8029C59.3481 25.1995 58.197 25.3977 56.8949 25.3977ZM56.9748 16.9638C57.5844 16.9638 58.0993 16.8129 58.5195 16.511C58.9457 16.2032 59.2712 15.7653 59.4961 15.1971C59.7269 14.623 59.8423 13.9364 59.8423 13.1374C59.8423 12.3384 59.7299 11.646 59.505 11.06C59.2801 10.4682 58.9545 10.0095 58.5284 9.68395C58.1023 9.35843 57.5844 9.19567 56.9748 9.19567C56.3533 9.19567 55.8295 9.36435 55.4034 9.7017C54.9773 10.0331 54.6547 10.4948 54.4357 11.0866C54.2167 11.6785 54.1072 12.3621 54.1072 13.1374C54.1072 13.9246 54.2167 14.6052 54.4357 15.1793C54.6606 15.7475 54.9832 16.1884 55.4034 16.5021C55.8295 16.8099 56.3533 16.9638 56.9748 16.9638ZM76.1398 12.1165V20H72.3579V6.36364H75.9623V8.76953H76.1221C76.4239 7.97644 76.93 7.34908 77.6402 6.88743C78.3504 6.41986 79.2116 6.18608 80.2236 6.18608C81.1706 6.18608 81.9962 6.39323 82.7006 6.80753C83.4049 7.22183 83.9523 7.81368 84.343 8.5831C84.7336 9.34659 84.9289 10.258 84.9289 11.3175V20H81.1469V11.9922C81.1528 11.1577 80.9398 10.5066 80.5077 10.0391C80.0757 9.56558 79.4809 9.32884 78.7233 9.32884C78.2143 9.32884 77.7645 9.43833 77.3738 9.65731C76.9891 9.8763 76.6873 10.1959 76.4683 10.6161C76.2552 11.0304 76.1457 11.5305 76.1398 12.1165ZM91.6916 12.1165V20H87.9096V1.81818H91.585V8.76953H91.7449C92.0526 7.96461 92.5498 7.33428 93.2363 6.87855C93.9229 6.4169 94.784 6.18608 95.8198 6.18608C96.7667 6.18608 97.5924 6.39323 98.2967 6.80753C99.0069 7.21591 99.5574 7.80481 99.948 8.57422C100.345 9.33771 100.54 10.2521 100.534 11.3175V20H96.752V11.9922C96.7579 11.1518 96.5448 10.4978 96.1127 10.0302C95.6866 9.56262 95.0888 9.32884 94.3194 9.32884C93.8045 9.32884 93.3488 9.43833 92.9522 9.65731C92.5616 9.8763 92.2538 10.1959 92.0289 10.6161C91.81 11.0304 91.6975 11.5305 91.6916 12.1165ZM107.399 20.2575C106.529 20.2575 105.753 20.1065 105.073 19.8047C104.392 19.4969 103.853 19.0442 103.457 18.4464C103.066 17.8427 102.871 17.091 102.871 16.1914C102.871 15.4338 103.01 14.7976 103.288 14.2827C103.566 13.7678 103.945 13.3535 104.425 13.0398C104.904 12.7261 105.449 12.4893 106.058 12.3295C106.674 12.1697 107.319 12.0573 107.994 11.9922C108.787 11.9093 109.426 11.8324 109.911 11.7614C110.396 11.6844 110.749 11.572 110.968 11.424C111.187 11.276 111.296 11.0571 111.296 10.767V10.7138C111.296 10.1515 111.119 9.7165 110.763 9.40874C110.414 9.10097 109.917 8.94709 109.272 8.94709C108.591 8.94709 108.05 9.09801 107.647 9.39986C107.245 9.69579 106.978 10.0687 106.848 10.5185L103.35 10.2344C103.528 9.40578 103.877 8.68963 104.398 8.08594C104.919 7.47633 105.591 7.00876 106.413 6.68324C107.242 6.3518 108.201 6.18608 109.29 6.18608C110.047 6.18608 110.772 6.27486 111.465 6.45241C112.163 6.62997 112.782 6.90518 113.32 7.27805C113.865 7.65092 114.294 8.13033 114.608 8.71626C114.921 9.29628 115.078 9.99171 115.078 10.8026V20H111.491V18.109H111.385C111.166 18.5352 110.873 18.911 110.506 19.2365C110.139 19.5561 109.698 19.8076 109.183 19.9911C108.668 20.1687 108.073 20.2575 107.399 20.2575ZM108.482 17.6474C109.038 17.6474 109.529 17.5379 109.956 17.3189C110.382 17.094 110.716 16.7921 110.959 16.4134C111.201 16.0346 111.323 15.6055 111.323 15.1261V13.679C111.204 13.7559 111.042 13.8269 110.834 13.892C110.633 13.9512 110.405 14.0075 110.151 14.0607C109.896 14.1081 109.642 14.1525 109.387 14.1939C109.133 14.2294 108.902 14.262 108.695 14.2915C108.251 14.3567 107.863 14.4602 107.532 14.6023C107.2 14.7443 106.943 14.9367 106.759 15.1793C106.576 15.4161 106.484 15.712 106.484 16.0671C106.484 16.582 106.671 16.9756 107.044 17.2479C107.422 17.5142 107.902 17.6474 108.482 17.6474ZM111.216 4.73011L109.432 2.56392L107.647 4.73011H104.425V4.60582L108.02 0.699573H110.834L114.439 4.60582V4.73011H111.216ZM109.281 25.1048C108.719 25.1048 108.236 24.9183 107.834 24.5455C107.431 24.1726 107.23 23.7228 107.23 23.196C107.23 22.6693 107.431 22.2195 107.834 21.8466C108.236 21.4737 108.719 21.2873 109.281 21.2873C109.843 21.2873 110.322 21.4737 110.719 21.8466C111.121 22.2195 111.323 22.6693 111.323 23.196C111.323 23.7228 111.121 24.1726 110.719 24.5455C110.322 24.9183 109.843 25.1048 109.281 25.1048ZM118.012 25.1136V6.36364H121.741V8.65412H121.91C122.075 8.28717 122.315 7.9143 122.629 7.53551C122.948 7.1508 123.363 6.8312 123.872 6.5767C124.386 6.31629 125.026 6.18608 125.789 6.18608C126.783 6.18608 127.701 6.4465 128.541 6.96733C129.382 7.48224 130.053 8.26053 130.557 9.3022C131.06 10.3379 131.311 11.6371 131.311 13.1996C131.311 14.7206 131.066 16.005 130.574 17.0526C130.089 18.0942 129.426 18.8844 128.586 19.4229C127.751 19.9556 126.816 20.2219 125.78 20.2219C125.046 20.2219 124.422 20.1006 123.907 19.858C123.398 19.6153 122.981 19.3105 122.655 18.9435C122.33 18.5707 122.081 18.1948 121.91 17.8161H121.794V25.1136H118.012ZM121.714 13.1818C121.714 13.9927 121.827 14.6999 122.052 15.3036C122.276 15.9073 122.602 16.3778 123.028 16.7152C123.454 17.0466 123.972 17.2124 124.582 17.2124C125.197 17.2124 125.718 17.0437 126.144 16.7063C126.57 16.363 126.893 15.8896 127.112 15.2859C127.337 14.6763 127.449 13.9749 127.449 13.1818C127.449 12.3946 127.34 11.7022 127.121 11.1044C126.902 10.5066 126.579 10.0391 126.153 9.7017C125.727 9.36435 125.203 9.19567 124.582 9.19567C123.966 9.19567 123.445 9.35843 123.019 9.68395C122.599 10.0095 122.276 10.4711 122.052 11.0689C121.827 11.6667 121.714 12.371 121.714 13.1818Z" fill="#727070"/>
</svg>
