<?xml version="1.0" encoding="UTF-8"?>
<svg id="Layer_1" data-name="Layer 1" xmlns="http://www.w3.org/2000/svg" xmlns:xlink="http://www.w3.org/1999/xlink" viewBox="0 0 500 500">
  <defs>
    <clipPath id="clippath">
      <path d="M432.76,216.71c0,100.94-81.82,182.76-182.76,182.76S67.24,317.64,67.24,216.71c0-92.59,68.86-169.1,158.16-181.12,8.05-1.08,14.04-22.45,22.38-22.45s19.31,21.4,27.6,22.55c88.92,12.36,157.38,88.69,157.38,181.01Z" fill="none"/>
    </clipPath>
    <clipPath id="clippath-1">
      <path d="M248.28,39.86c-2,0-95.2,90.51-95.2,90.51,0,0,28.86-17.05,95.2-18.93,66.34,1.87,95.2,18.93,95.2,18.93,0,0-93.2-90.51-95.2-90.51Z" fill="#fff87b"/>
    </clipPath>
    <clipPath id="clippath-2">
      <path d="M311.12,167.92c-6.75-.87-24.02-23.86-25.24-42.35l-38.1-1-38.1,1c-1.22,18.49-18.49,41.48-25.24,42.35-6.75,.87-11.49-3.15-11.12,7,4.12,13.12,17.8,6.37,17.8,6.37l4.68,.25c13.87,36.92,51.97,32.73,51.97,32.73,0,0,38.1,4.19,51.97-32.73l4.68-.25s13.68,6.75,17.8-6.37c.37-10.15-4.37-6.12-11.12-7Z" fill="#fbd87c"/>
    </clipPath>
    <clipPath id="clippath-3">
      <path d="M220.18,176.1c3.93,14.8,8.99,28.03,29.68,25.67,24.16-2.75,34.78-37.2,25.03-36.45-9.74,.75-23.14,8.61-35.79,4.16-12.65-4.44-22.92-8.45-18.92,6.61Z" fill="#66110e"/>
    </clipPath>
    <clipPath id="clippath-4">
      <path d="M219.3,227.89l8.74,2.37,18.49,23.36s13.49-6.62,21.74-23.99c0,0,59.34-12.85,74.33,94.7l-18.24,1.5-10.74,3-5.75,14.24-100.95,2.25s-24.24-16.99-42.73-25.24c0,0,5.26-71.96,55.1-92.2Z" fill="none"/>
    </clipPath>
    <clipPath id="clippath-5">
      <path d="M219.3,227.89l8.74,2.37,18.49,23.36s13.49-6.62,21.74-23.99c0,0,59.34-12.85,74.33,94.7-4.6,8.81-5.36,19.02-34.73,18.74l-100.95,2.25s-24.24-16.99-42.73-25.24c0,0,5.26-71.96,55.1-92.2Z" fill="none"/>
    </clipPath>
  </defs>
  <circle cx="250" cy="216.3" r="182.76" fill="#faa401"/>
  <g clip-path="url(#clippath)">
    <path d="M188.08,194.23s-90.2-11.12-48.37-64.01c16.14-20.4,97.02-102.02,107.84-102.02,12.12,0,92.33,80.95,107.69,95.7,49.25,47.28-28.67,71.84-43.48,70.34,0,0-8.5,21.24-26.24,24.86,0,0,52.72,12.24,64.7,86.59,0,0,18.32,22.53-9.35,30.97-3.88,1.18-16.24,0-16.24,0,0,0-4.37,45.1-13.62,59.83-8.51,13.56-117.34,7.4-117.34,7.4,0,0-14.97-17.38-20.59-66.48l-18.74-1.87s-29.23-12.74,3.75-72.21c17.48-31.52,47.35-43.73,47.35-43.73,0,0-19.36-9-17.37-25.36Z" fill="#66110e"/>
    <path d="M246.53,253.62s13.49-6.62,21.74-23.99c0,0,59.34-12.85,74.33,94.7l-18.24,1.5-10.74,3-5.75,14.24" fill="#faf7d8"/>
    <g>
      <path d="M248.28,39.86c-2,0-95.2,90.51-95.2,90.51,0,0,28.86-17.05,95.2-18.93,66.34,1.87,95.2,18.93,95.2,18.93,0,0-93.2-90.51-95.2-90.51Z" fill="#fff87b"/>
      <g clip-path="url(#clippath-1)">
        <polygon points="248.28 33.49 248.28 113.51 145.4 138.25 147.65 126.07 248.28 33.49" fill="#febb30"/>
      </g>
    </g>
    <g>
      <path d="M311.12,167.92c-6.75-.87-24.02-23.86-25.24-42.35l-38.1-1-38.1,1c-1.22,18.49-18.49,41.48-25.24,42.35-6.75,.87-11.49-3.15-11.12,7,4.12,13.12,17.8,6.37,17.8,6.37l4.68,.25c13.87,36.92,51.97,32.73,51.97,32.73,0,0,38.1,4.19,51.97-32.73l4.68-.25s13.68,6.75,17.8-6.37c.37-10.15-4.37-6.12-11.12-7Z" fill="#fbd87c"/>
      <g clip-path="url(#clippath-2)">
        <path d="M247.78,120.61v55.12s-26.49,27.55-44.66,23.42c-18.18-4.12-41.23-23.8-41.23-23.8,0,0,5.06-14.05,6.93-17.99s23.42-26.99,23.42-26.99c0,0,37.79-26.33,55.53-9.77Z" fill="#ffae46"/>
        <path d="M204.18,137.19s31.98-.62,43.6,2.25c0,0,25.36-4,44.35-3.75l-1-15.99-82.73,1.75-4.22,15.74Z" fill="#d16c22"/>
      </g>
    </g>
    <path d="M287.16,154.86c-1.06-2.31-2.52-4.38-4.3-6.32-1.82-1.87-4.13-3.6-7.16-4.25-1.49-.32-3.15-.43-4.76-.14-1.63,.28-3.06,1.11-4.14,2.16-2.14,2.14-3.28,4.79-3.18,7.73l.5,.3c2.63-1.22,4.51-2.52,6.24-3.37,.85-.43,1.56-.86,2.28-1.26,.72-.42,1.55-.74,2.47-.75,1.83-.03,3.95,.73,5.92,1.88,2.02,1.12,3.89,2.68,5.64,4.35l.49-.33Z" fill="#66110e"/>
    <g>
      <path d="M220.18,176.1c3.93,14.8,8.99,28.03,29.68,25.67,24.16-2.75,34.78-37.2,25.03-36.45-9.74,.75-23.14,8.61-35.79,4.16-12.65-4.44-22.92-8.45-18.92,6.61Z" fill="#66110e"/>
      <g clip-path="url(#clippath-3)">
        <path d="M221.95,162.89s1.6,18.27,26.94,17.43c25.34-.84,27.21-23.24,27.21-23.24l-54.16,5.81Z" fill="#faf7d8"/>
        <path d="M224.01,192.78s5.34-9,14.05-6.65,12.83,3.23,18.46,2.16-2.62,15.69-24.57,13.77c-21.08-1.85-7.94-9.27-7.94-9.27Z" fill="#ff241a"/>
      </g>
    </g>
    <path d="M208.4,154.86c1.06-2.31,2.52-4.38,4.3-6.32,1.82-1.87,4.13-3.6,7.16-4.25,1.49-.32,3.15-.43,4.76-.14,1.63,.28,3.06,1.11,4.14,2.16,2.14,2.14,3.28,4.79,3.18,7.73l-.5,.3c-2.63-1.22-4.51-2.52-6.24-3.37-.85-.43-1.56-.86-2.28-1.26-.72-.42-1.55-.74-2.47-.75-1.83-.03-3.95,.73-5.92,1.88-2.02,1.12-3.89,2.68-5.64,4.35l-.49-.33Z" fill="#66110e"/>
    <path d="M267.15,240.38s-12.93,1-22.93,16.24l22.93-16.24Z" fill="#fba504"/>
    <path d="M319.4,329.86s-4.78-4.78-1.78-10.12,5.53-6.37,5.81-2.44,1.69,10.4,1.69,10.4l-4.24,5.3-1.47-3.14Z" fill="#66110e"/>
    <g clip-path="url(#clippath-4)">
      <path d="M246.41,248.38l1.37,99.7-41.6-.25-47.72-26.24,16.74-76.71,47.97-21.99s19.99,10.99,23.24,25.49Z" fill="#a01f06"/>
      <path d="M230.17,230.64c-33.3,4.31-53.97,62.47-53.72,84.7,0,0,27.24,14.49,31.98,31.23l109.69-1.25c3.02-42.64-32.87-77.32-71.46-111.44l-16.49-3.25Z" fill="#fd5618"/>
      <path d="M209.68,347.84s5.5-15.01,.5-29.26c-5-14.24-14.81-43.58-15.74-44.98-2.5-3.75,2-14.49,8.25-4.5,7,20.74,13.56,39.85,13.56,39.85,0,0,13.68-.62,15.18,.37,0,0,19.31,15.23,19.68,25.11s-39.07,14.43-39.07,14.43c0,0-1.4,.35-2.81-1.04" fill="#66110e"/>
      <path d="M264.3,308.73l-9.15,13.26h14.87l5.43-11.06s-5.34,2.16-7.59,0-3.27-2.68-3.56-2.2Z" fill="#fedf81"/>
      <path d="M200.51,333.58s5.74-7.31,18.17-4.56c0,0-7.69,9.55-7.31,17.52l-3.81,.22c1.12-.18-3.52-10.16-7.05-13.18Z" fill="#fbbf36"/>
      <path d="M302.49,299.47s-7.23-1.12-8.36,3.87c-1.12,5,4.18,6.62,4.18,6.62,0,0-20.3,14.12-38.66-3-15.94-14.86-28.07-32.93-13.92-52.51,2.15-2.97,4.9-5.98,8.34-9.02,34.7-21.55,71.18,24.68,74.67,81.9l-23.61,1.5s-8.81-12.68-3.87-17.12,7.91-7.93,1.24-12.24Z" fill="#fba504"/>
      <ellipse cx="277.3" cy="289.32" rx="16.35" ry="12.14" transform="translate(-22.82 554.9) rotate(-87.72)" fill="#fa7800"/>
      <path d="M318.22,329.56c.53,11.51-7.05,17.51-15.74,17.51s-15.74-8.82-15.74-17.51,7.05-15.74,15.74-15.74,15.35,7.06,15.74,15.74Z" fill="#fcd609"/>
      <path d="M278.83,346.2s-4.68-18.61,10.06-19.18,17.99,18.43,17.68,22.18-27.74-3-27.74-3Z" fill="#18a149"/>
      <path d="M258.78,347.29l8.37-22.21h2.37l17.99-58.09s1-6.5,6.87-4c5.87,2.5,2.37,8.5-.87,17.24-3.25,8.75-16.49,46.97-16.49,46.97l6,5.12-6,22.99-18.24-8.03" fill="#66110e"/>
      <path d="M221.58,347.53s-7.31-22.96,17.29-20.61c0,0-1.27-12.07,10.6-12.07,12.12,0,10.31,13.62,10.31,13.62,0,0,17.43-1.44,11.49,16.87l-49.69,2.2Z" fill="#18a149"/>
      <path d="M238.91,335.02c.66,1.5,5.37,6.68,5.37,6.68v3.62h7.18v-4.5l4.92-5.9c-.09-2.17-1.4-2.37-2.74-1.23l-5.85,7.2-6.51-6.81c-1.17-.95-3.03-.56-2.37,.94Z" fill="#460c00"/>
    </g>
    <g>
      <path d="M309.38,355.08c-2.82,2.42-3.54,8.95-3.54,8.95l-40.65,.1,3.79-11.51c18.06-.03,33.78-.03,35.05,.01,3.08,.09,6.37-.94,5.34,2.44Z" fill="#fdf08f"/>
      <path d="M301.41,376.04c.19,1.86-3.51,3.11-3.51,3.11v7.82l-40.25,.12,4.33-13.18h38.96s.28,.25,.47,2.13Z" fill="#fdf08f"/>
      <path d="M268.98,352.62l-3.79,11.51-47.65,.12-5.01-11.54s30.61-.06,56.44-.09Z" fill="#fecb43"/>
      <path d="M261.98,373.91l-4.33,13.18-29.98,.09c0-3.93-6-13.27-6-13.27h40.31Z" fill="#fecb43"/>
    </g>
    <g clip-path="url(#clippath-5)">
      <path d="M318.22,329.56c.53,11.51-7.05,17.51-15.74,17.51s-15.74-8.82-15.74-17.51,7.05-15.74,15.74-15.74,15.35,7.06,15.74,15.74Z" fill="#fcd609"/>
      <path d="M278.83,346.2s-4.68-18.61,10.06-19.18,17.99,18.43,17.68,22.18-27.74-3-27.74-3Z" fill="#18a149"/>
    </g>
  </g>
  <g>
    <path d="M88.66,445.54h-8.83v21.03h-13.42v-62.7h24.14c11.54,0,22.08,8.96,22.08,20.86,0,7.21-3.89,14.56-10.54,17.71l14.91,24.14h-15.65l-12.68-21.03Zm-9.18-12.11h11.06c4.85,0,8.61-3.5,8.61-8.39s-3.89-8.31-8.61-8.31h-11.06v16.7Z" fill="#faa401"/>
    <path d="M115.9,444.27c0-13.03,10.76-23.35,23.7-23.35s23.7,10.28,23.7,23.35-10.67,23.17-23.7,23.17-23.7-9.93-23.7-23.17Zm23.7,11.41c6.38,0,11.11-5.16,11.11-11.46s-4.72-11.54-11.11-11.54-11.11,5.29-11.11,11.54,4.72,11.46,11.11,11.46Z" fill="#faa401"/>
    <path d="M182.88,428.71c1.88-4.94,7.17-7.52,12.24-7.52,11.32,0,15.08,10.84,15.08,20.46v24.92h-12.59v-24.83c0-4.68-2.14-9.05-7.39-9.05s-7.35,4.33-7.35,9.05v24.83h-12.64v-44.77l12.64,6.91Z" fill="#faa401"/>
    <path d="M250.83,427.57c-3.41-4.29-8-6.47-13.46-6.47-11.98,0-20.82,11.89-20.82,23.18s8.35,23.03,20.73,23.03c5.55,0,10.14-2.35,13.55-6.72v.91c0,7.15-2.79,11.95-10.82,12.1v13.27c15.93-.1,23.46-9.92,23.46-25.37v-39.69l-12.64,5.77Zm-10.58,28.11c-6.39,0-11.1-5.15-11.1-11.45s4.71-11.55,11.1-11.55,11.16,5.3,11.16,11.55-4.77,11.45-11.16,11.45Z" fill="#faa401"/>
    <path d="M302.95,438.32c-4.85-9.71-20.64-6.34-20.64,5.9s14.69,16,20.94,5.34l9.93,6.43c-12.29,20.24-43.46,11.85-43.46-11.72,0-13.03,10.76-23.35,23.7-23.35,8.18,0,15.83,4.5,19.85,11.59l-10.32,5.82Z" fill="#faa401"/>
    <path d="M333.03,428.71c1.88-4.94,7.17-7.52,12.24-7.52,11.32,0,15.09,10.84,15.09,20.46v24.92h-12.59v-24.83c0-4.68-2.14-9.05-7.39-9.05s-7.35,4.33-7.35,9.05v24.83h-12.64v-62.7h12.64v24.83Z" fill="#faa401"/>
    <path d="M366.79,444.27c0-13.03,10.76-23.35,23.7-23.35s23.7,10.28,23.7,23.35-10.67,23.17-23.7,23.17-23.7-9.93-23.7-23.17Zm23.7,11.41c6.38,0,11.11-5.16,11.11-11.46s-4.72-11.54-11.11-11.54-11.11,5.29-11.11,11.54,4.72,11.46,11.11,11.46Z" fill="#faa401"/>
    <path d="M427.26,402.72h0c4.1,0,7.42,3.32,7.42,7.42v.92c0,4.1-3.32,7.42-7.42,7.42h0c-4.1,0-7.42-3.32-7.42-7.42v-.92c0-4.1,3.32-7.42,7.42-7.42Zm-6.34,19.08h12.68v44.77h-12.68v-44.77Z" fill="#faa401"/>
  </g>
</svg>