<svg version="1.1" id="Layer_1" xmlns="http://www.w3.org/2000/svg" xmlns:xlink="http://www.w3.org/1999/xlink" x="0" y="0" viewBox="0 0 500 500" xml:space="preserve"><style>.st0{fill:#faa401}.st2{fill:#66110e}.st3{fill:#faf7d8}.st13{fill:#fba504}.st20{fill:#fcd609}.st21{fill:#18a149}.st26{enable-background:new}</style><circle class="st0" cx="250" cy="216.3" r="182.8"/><defs><path id="SVGID_1_" d="M432.8 216.7c0 100.9-81.8 182.8-182.8 182.8S67.2 317.6 67.2 216.7c0-92.6 68.9-169.1 158.2-181.1 8.1-1.1 14-22.5 22.4-22.5 8.3 0 19.3 21.4 27.6 22.5 88.9 12.5 157.4 88.8 157.4 181.1"/></defs><clipPath id="SVGID_00000155835239886341568680000010855942897454931586_"><use xlink:href="#SVGID_1_" style="overflow:visible"/></clipPath><g style="clip-path:url(#SVGID_00000155835239886341568680000010855942897454931586_)"><path class="st2" d="M188.1 194.2s-90.2-11.1-48.4-64c16.1-20.4 97-102 107.8-102 12.1 0 92.3 80.9 107.7 95.7 49.2 47.3-28.7 71.8-43.5 70.3 0 0-8.5 21.2-26.2 24.9 0 0 52.7 12.2 64.7 86.6 0 0 18.3 22.5-9.4 31-3.9 1.2-16.2 0-16.2 0s-4.4 45.1-13.6 59.8c-8.5 13.6-117.3 7.4-117.3 7.4s-15-17.4-20.6-66.5l-18.7-1.9s-29.2-12.7 3.8-72.2c17.5-31.5 47.3-43.7 47.3-43.7s-19.4-9-17.4-25.4"/><path class="st3" d="M246.5 253.6s13.5-6.6 21.7-24c0 0 59.3-12.9 74.3 94.7l-18.2 1.5-10.7 3-5.8 14.2"/><path d="M248.3 39.9c-2 0-95.2 90.5-95.2 90.5s28.9-17 95.2-18.9c66.3 1.9 95.2 18.9 95.2 18.9s-93.2-90.5-95.2-90.5" style="fill:#fff87b"/><defs><path id="SVGID_00000138541143983101978510000018178932350735783851_" d="M248.3 39.9c-2 0-95.2 90.5-95.2 90.5s28.9-17 95.2-18.9c66.3 1.9 95.2 18.9 95.2 18.9s-93.2-90.5-95.2-90.5"/></defs><clipPath id="SVGID_00000160180974102738760640000001538508896797609605_"><use xlink:href="#SVGID_00000138541143983101978510000018178932350735783851_" style="overflow:visible"/></clipPath><g style="clip-path:url(#SVGID_00000160180974102738760640000001538508896797609605_)"><path style="fill:#febb30" d="M248.3 33.5v80l-102.9 24.7 2.2-12.1z"/></g><path d="M311.1 167.9c-6.8-.9-24-23.9-25.2-42.3l-38.1-1-38.1 1c-1.2 18.5-18.5 41.5-25.2 42.3s-11.5-3.1-11.1 7c4.1 13.1 17.8 6.4 17.8 6.4l4.7.2c13.9 36.9 52 32.7 52 32.7s38.1 4.2 52-32.7l4.7-.2s13.7 6.8 17.8-6.4c.2-10.1-4.6-6.1-11.3-7" style="fill:#fbd87c"/><defs><path id="SVGID_00000011029161052763928460000005036557929853131926_" d="M311.1 167.9c-6.8-.9-24-23.9-25.2-42.3l-38.1-1-38.1 1c-1.2 18.5-18.5 41.5-25.2 42.3s-11.5-3.1-11.1 7c4.1 13.1 17.8 6.4 17.8 6.4l4.7.2c13.9 36.9 52 32.7 52 32.7s38.1 4.2 52-32.7l4.7-.2s13.7 6.8 17.8-6.4c.2-10.1-4.6-6.1-11.3-7"/></defs><clipPath id="SVGID_00000019636235608605838610000005031965328586459796_"><use xlink:href="#SVGID_00000011029161052763928460000005036557929853131926_" style="overflow:visible"/></clipPath><g style="clip-path:url(#SVGID_00000019636235608605838610000005031965328586459796_)"><path d="M247.8 120.6v55.1s-26.5 27.6-44.7 23.4c-18.2-4.1-41.2-23.8-41.2-23.8s5.1-14.1 6.9-18 23.4-27 23.4-27 37.8-26.3 55.6-9.7" style="fill:#ffae46"/><path d="M204.2 137.2s32-.6 43.6 2.2c0 0 25.4-4 44.4-3.8l-1-16-82.7 1.8z" style="fill:#d16c22"/></g><path class="st2" d="M287.2 154.9c-1.1-2.3-2.5-4.4-4.3-6.3s-4.1-3.6-7.2-4.2c-1.5-.3-3.1-.4-4.8-.1-1.6.3-3.1 1.1-4.1 2.2-2.1 2.1-3.3 4.8-3.2 7.7l.5.3c2.6-1.2 4.5-2.5 6.2-3.4.9-.4 1.6-.9 2.3-1.3s1.5-.7 2.5-.8c1.8 0 4 .7 5.9 1.9 2 1.1 3.9 2.7 5.6 4.4zm-67 21.2c3.9 14.8 9 28 29.7 25.7 24.2-2.8 34.8-37.2 25-36.4-9.7.8-23.1 8.6-35.8 4.2-12.7-4.6-22.9-8.6-18.9 6.5"/><defs><path id="SVGID_00000021100863193431810280000003046548240594946235_" d="M220.2 176.1c3.9 14.8 9 28 29.7 25.7 24.2-2.8 34.8-37.2 25-36.4-9.7.8-23.1 8.6-35.8 4.2-12.7-4.6-22.9-8.6-18.9 6.5"/></defs><clipPath id="SVGID_00000076567201820963114210000009235252352058139296_"><use xlink:href="#SVGID_00000021100863193431810280000003046548240594946235_" style="overflow:visible"/></clipPath><g style="clip-path:url(#SVGID_00000076567201820963114210000009235252352058139296_)"><path class="st3" d="M221.9 162.9s1.6 18.3 26.9 17.4 27.2-23.2 27.2-23.2z"/><path d="M224 192.8s5.3-9 14.1-6.6 12.8 3.2 18.5 2.2c5.6-1.1-2.6 15.7-24.6 13.8-21.1-2-8-9.4-8-9.4" style="fill:#ff241a"/></g><path class="st2" d="M208.4 154.9c1.1-2.3 2.5-4.4 4.3-6.3s4.1-3.6 7.2-4.2c1.5-.3 3.1-.4 4.8-.1 1.6.3 3.1 1.1 4.1 2.2 2.1 2.1 3.3 4.8 3.2 7.7l-.5.3c-2.6-1.2-4.5-2.5-6.2-3.4-.9-.4-1.6-.9-2.3-1.3s-1.6-.7-2.5-.8c-1.8 0-3.9.7-5.9 1.9-2 1.1-3.9 2.7-5.6 4.4z"/><path class="st13" d="M267.1 240.4s-12.9 1-22.9 16.2z"/><path class="st2" d="M319.4 329.9s-4.8-4.8-1.8-10.1 5.5-6.4 5.8-2.4 1.7 10.4 1.7 10.4l-4.2 5.3z"/><defs><path id="SVGID_00000104692353805263865000000013729740946328361112_" d="m219.3 227.9 8.7 2.4 18.5 23.4s13.5-6.6 21.7-24c0 0 59.3-12.9 74.3 94.7l-18.2 1.5-10.7 3-5.8 14.2-100.9 2.2s-24.2-17-42.7-25.2c0 0 5.3-72 55.1-92.2"/></defs><clipPath id="SVGID_00000085950440326561996770000011220791488479256711_"><use xlink:href="#SVGID_00000104692353805263865000000013729740946328361112_" style="overflow:visible"/></clipPath><g style="clip-path:url(#SVGID_00000085950440326561996770000011220791488479256711_)"><path d="m246.4 248.4 1.4 99.7-41.6-.2-47.7-26.2 16.7-76.7 48-22c0-.1 20 10.9 23.2 25.4" style="fill:#a01f06"/><path d="M230.2 230.6c-33.3 4.3-54 62.5-53.7 84.7 0 0 27.2 14.5 32 31.2l109.7-1.2c3-42.6-32.9-77.3-71.5-111.4z" style="fill:#fd5618"/><path class="st2" d="M209.7 347.8s5.5-15 .5-29.3c-5-14.2-14.8-43.6-15.7-45-2.5-3.8 2-14.5 8.2-4.5 7 20.7 13.6 39.9 13.6 39.9s13.7-.6 15.2.4c0 0 19.3 15.2 19.7 25.1S212 348.9 212 348.9s-1.4.4-2.8-1"/><path d="m264.3 308.7-9.1 13.3H270l5.4-11.1s-5.3 2.2-7.6 0-3.2-2.6-3.5-2.2" style="fill:#fedf81"/><path d="M200.5 333.6s5.7-7.3 18.2-4.6c0 0-7.7 9.5-7.3 17.5l-3.8.2c1.1-.1-3.6-10.1-7.1-13.1" style="fill:#fbbf36"/><path class="st13" d="M302.5 299.5s-7.2-1.1-8.4 3.9c-1.1 5 4.2 6.6 4.2 6.6s-20.3 14.1-38.7-3c-15.9-14.9-28.1-32.9-13.9-52.5 2.1-3 4.9-6 8.3-9 34.7-21.6 71.2 24.7 74.7 81.9l-23.6 1.5s-8.8-12.7-3.9-17.1 8-8 1.3-12.3"/><ellipse transform="rotate(-87.72 277.303 289.33)scale(.99999)" cx="277.3" cy="289.3" rx="16.4" ry="12.1" style="fill:#fa7800"/><path class="st20" d="M318.2 329.6c.5 11.5-7 17.5-15.7 17.5s-15.7-8.8-15.7-17.5 7-15.7 15.7-15.7 15.3 7 15.7 15.7"/><path class="st21" d="M278.8 346.2s-4.7-18.6 10.1-19.2 18 18.4 17.7 22.2-27.8-3-27.8-3"/><path class="st2" d="m258.8 347.3 8.4-22.2h2.4l18-58.1s1-6.5 6.9-4 2.4 8.5-.9 17.2c-3.2 8.8-16.5 47-16.5 47l6 5.1-6 23z"/><path class="st21" d="M221.6 347.5s-7.3-23 17.3-20.6c0 0-1.3-12.1 10.6-12.1 12.1 0 10.3 13.6 10.3 13.6s17.4-1.4 11.5 16.9z"/><path d="M238.9 335c.7 1.5 5.4 6.7 5.4 6.7v3.6h7.2v-4.5l4.9-5.9c-.1-2.2-1.4-2.4-2.7-1.2l-5.9 7.2-6.5-6.8c-1.2-1-3.1-.6-2.4.9" style="fill:#460c00"/></g><path d="M309.4 355.1c-2.8 2.4-3.5 9-3.5 9l-40.6.1 3.8-11.5h35c3 0 6.3-1 5.3 2.4m-8 20.9c.2 1.9-3.5 3.1-3.5 3.1v7.8l-40.2.1 4.3-13.2h39c-.1.1.2.4.4 2.2" style="fill:#fdf08f"/><path d="m269 352.6-3.8 11.5-47.6.1-5-11.5c-.1 0 30.5-.1 56.4-.1m-7 21.3-4.3 13.2-30 .1c0-3.9-6-13.3-6-13.3z" style="fill:#fecb43"/><defs><path id="SVGID_00000013184133751296324740000001766522872490492595_" d="m219.3 227.9 8.7 2.4 18.5 23.4s13.5-6.6 21.7-24c0 0 59.3-12.9 74.3 94.7-4.6 8.8-5.4 19-34.7 18.7l-100.9 2.2s-24.2-17-42.7-25.2c0 0 5.3-72 55.1-92.2"/></defs><clipPath id="SVGID_00000030467449256219352300000012206084902528766604_"><use xlink:href="#SVGID_00000013184133751296324740000001766522872490492595_" style="overflow:visible"/></clipPath><g style="clip-path:url(#SVGID_00000030467449256219352300000012206084902528766604_)"><path class="st20" d="M318.2 329.6c.5 11.5-7 17.5-15.7 17.5s-15.7-8.8-15.7-17.5 7-15.7 15.7-15.7 15.3 7 15.7 15.7"/><path class="st21" d="M278.8 346.2s-4.7-18.6 10.1-19.2 18 18.4 17.7 22.2-27.8-3-27.8-3"/></g></g><g class="st26"><path class="st0" d="M78.7 473.4H66.3v-61.8H91c2.3 0 4.5.3 6.5.9 2.1.6 4.1 1.4 5.9 2.5s3.5 2.4 5 3.9 2.8 3.2 3.9 5 1.9 3.8 2.5 5.9.9 4.3.9 6.5c0 2.1-.3 4.2-.8 6.2s-1.3 3.9-2.3 5.7-2.2 3.5-3.6 5-3 2.8-4.8 4l6.8 16.2H97.9L92.5 461H78.7zm0-49.4v24.7h12.4c1.7 0 3.3-.3 4.8-1 1.5-.6 2.8-1.5 3.9-2.6s2-2.4 2.6-3.9 1-3.1 1-4.8-.3-3.3-1-4.8-1.5-2.8-2.6-3.9-2.4-2-3.9-2.6-3.1-1-4.8-1H78.7z"/></g><g class="st26"><path class="st0" d="M166.7 449.9c0 3.4-.6 6.7-1.9 9.6-1.2 3-2.9 5.5-5 7.7q-3.15 3.3-7.5 5.1c-2.9 1.2-5.9 1.9-9.2 1.9-3.2 0-6.3-.6-9.2-1.9-2.9-1.2-5.4-3-7.5-5.1-2.1-2.2-3.8-4.7-5.1-7.7-1.2-3-1.9-6.2-1.9-9.6 0-3.5.6-6.7 1.9-9.7 1.2-3 2.9-5.6 5.1-7.7q3.15-3.3 7.5-5.1c2.9-1.2 5.9-1.9 9.2-1.9s6.3.6 9.2 1.7c2.9 1.2 5.3 2.8 7.5 5 2.1 2.1 3.8 4.7 5 7.7s1.9 6.4 1.9 10m-11.9 0q0-2.85-.9-5.1c-.6-1.5-1.5-2.9-2.5-4-1.1-1.1-2.3-2-3.7-2.5q-2.1-.9-4.5-.9t-4.5.9c-1.4.6-2.7 1.4-3.7 2.5s-1.9 2.4-2.5 4c-.6 1.5-.9 3.3-.9 5.1s.3 3.4.9 5c.6 1.5 1.4 2.8 2.5 4 1 1.1 2.3 2 3.7 2.6s2.9 1 4.5 1q2.4 0 4.5-.9c1.4-.6 2.7-1.4 3.7-2.5 1.1-1.1 1.9-2.4 2.5-4s.9-3.3.9-5.2m30.1 23.5h-11.8v-46.1h2.8l3.9 4.5c1.9-1.7 4-3 6.4-4 2.4-.9 4.9-1.4 7.5-1.4 2.8 0 5.5.5 8 1.6s4.7 2.6 6.5 4.4c1.9 1.9 3.3 4.1 4.4 6.6s1.6 5.2 1.6 8v26.4h-11.8V447c0-1.2-.2-2.3-.7-3.4s-1.1-2-1.9-2.8-1.7-1.4-2.8-1.9-2.2-.7-3.4-.7-2.4.2-3.5.7-2 1.1-2.8 1.9-1.4 1.7-1.9 2.8-.7 2.2-.7 3.4v26.4zm82.5-5.8c0 3.2-.6 6.3-1.9 9.1q-1.8 4.2-5.1 7.5c-2.1 2.1-4.6 3.8-7.5 5s-5.9 1.9-9.2 1.9l-5.9-.1v-11.8l5.8.1c1.8 0 3.4-.2 4.7-.7s2.4-1.1 3.3-1.9 1.6-1.8 2.1-2.8c.5-1.1 1-2.2 1.3-3.4-.5.7-1.1 1.4-2 1.8s-1.8.9-2.9 1.2q-1.5.45-3.3.6c-1.1.1-2.2.2-3.2.2-3.2 0-6.3-.6-9.2-1.7q-4.35-1.65-7.5-4.8c-2.1-2.1-3.8-4.6-5.1-7.6-1.2-3-1.9-6.4-1.9-10.2 0-3.5.6-6.7 1.9-9.7q1.8-4.5 5.1-7.8 3.15-3.3 7.5-5.1c2.9-1.2 5.9-1.9 9.2-1.9 1.5 0 3 .2 4.4.6 1.5.4 2.9.9 4.3 1.5 1.4.7 2.7 1.4 3.9 2.3s2.4 1.9 3.5 2.9l4.6-5.5h2.8v40.3zm-11.8-17.7c0-1.6-.3-3.2-.9-4.7s-1.5-2.8-2.5-4c-1.1-1.2-2.3-2.1-3.7-2.8s-2.9-1.1-4.5-1.1-3.1.3-4.5.8-2.7 1.4-3.7 2.4c-1 1.1-1.9 2.4-2.5 3.9q-.9 2.4-.9 5.4c0 1.9.3 3.7.9 5.2s1.4 2.9 2.5 3.9c1 1.1 2.3 1.9 3.7 2.5q2.1.9 4.5.9c1.6 0 3.1-.4 4.5-1.1s2.7-1.6 3.7-2.8 1.9-2.5 2.5-4 .9-2.9.9-4.5m61.1-13.4-8.6 8.7q-.6-1.8-1.8-3.3c-.7-1-1.6-1.8-2.5-2.4q-1.35-1.05-3-1.5c-1.1-.3-2.2-.5-3.4-.5-1.6 0-3.1.3-4.5 1s-2.7 1.6-3.7 2.8-1.9 2.6-2.5 4.2q-.9 2.4-.9 5.4 0 2.4.9 4.5c.6 1.4 1.4 2.6 2.5 3.7 1 1.1 2.3 1.9 3.7 2.5q2.1.9 4.5.9c1.1 0 2.3-.2 3.3-.5 1.1-.3 2.1-.8 3-1.4s1.8-1.3 2.5-2.2 1.3-1.8 1.8-2.8l8.6 8.7c-1.1 1.6-2.3 2.9-3.8 4.2-1.4 1.2-3 2.3-4.6 3.1s-3.4 1.5-5.2 2c-1.8.4-3.7.7-5.6.7-3.2 0-6.3-.6-9.2-1.8s-5.4-2.9-7.5-5q-3.15-3.15-5.1-7.5c-1.2-2.8-1.9-5.9-1.9-9.1 0-3.5.6-6.8 1.9-9.9 1.2-3.1 2.9-5.8 5.1-8q3.15-3.45 7.5-5.4c2.9-1.3 5.9-2 9.2-2 1.9 0 3.8.2 5.7.7s3.6 1.2 5.3 2.1 3.2 2.1 4.7 3.4c1.3 1.4 2.5 2.9 3.6 4.7m17.5 36.9h-11.8v-64.5h11.8v20.4c1.4-1.1 2.9-1.8 4.4-2.3s3-.7 4.6-.7c2.8 0 5.5.5 8 1.6s4.7 2.6 6.5 4.4c1.9 1.9 3.3 4.1 4.4 6.6s1.6 5.2 1.6 8v26.4h-11.8v-26.4h.1c0-1.2-.2-2.3-.7-3.4s-1.1-2-1.9-2.8-1.7-1.4-2.8-1.9-2.2-.7-3.4-.7-2.4.2-3.5.7-2 1.1-2.8 1.9-1.4 1.7-1.9 2.8-.7 2.2-.7 3.4v26.5zm82.4-23.5c0 3.4-.6 6.7-1.9 9.6s-2.9 5.5-5 7.7-4.6 3.9-7.5 5.1-5.9 1.9-9.2 1.9c-3.2 0-6.3-.6-9.2-1.9-2.9-1.2-5.4-3-7.5-5.1-2.1-2.2-3.8-4.7-5.1-7.7s-1.9-6.2-1.9-9.6c0-3.5.6-6.7 1.9-9.7s2.9-5.6 5.1-7.7q3.15-3.3 7.5-5.1c2.9-1.2 5.9-1.9 9.2-1.9s6.3.6 9.2 1.7c2.9 1.2 5.3 2.8 7.5 5 2.1 2.1 3.8 4.7 5 7.7s1.9 6.4 1.9 10m-11.9 0q0-2.85-.9-5.1c-.6-1.5-1.5-2.9-2.5-4s-2.3-2-3.7-2.5q-2.1-.9-4.5-.9t-4.5.9c-1.4.6-2.7 1.4-3.7 2.5s-1.9 2.4-2.5 4c-.6 1.5-.9 3.3-.9 5.1s.3 3.4.9 5c.6 1.5 1.4 2.8 2.5 4 1 1.1 2.3 2 3.7 2.6s2.9 1 4.5 1q2.4 0 4.5-.9c1.4-.6 2.7-1.4 3.7-2.5 1.1-1.1 1.9-2.4 2.5-4s.9-3.3.9-5.2m32.2-35.2c0 1.1-.2 2.1-.6 3.1-.4.9-1 1.8-1.7 2.5s-1.6 1.3-2.5 1.7c-1 .4-2 .6-3.1.6s-2.1-.2-3.1-.6-1.8-1-2.5-1.7-1.3-1.5-1.7-2.5c-.4-.9-.6-2-.6-3.1q0-1.65.6-3c.6-1.35 1-1.8 1.7-2.5s1.5-1.3 2.5-1.7 2-.6 3.1-.6 2.1.2 3.1.6 1.8 1 2.5 1.7 1.3 1.5 1.7 2.5q.6 1.5.6 3m-2 58.7h-11.8v-46.1h11.8z"/></g></svg>